#!OML:ASF I:\golf\golf\golf 2\Subject 1\2002-09-07\Subject1.ASF
:FULLY-SPECIFIED
:DEGREES
215
root -0.323917 17.6861 -4.99691 44.002 19.8213 4.06776
lowerback 29.1863 3.31468 -0.161909
upperback 12.9626 4.70898 7.17953
thorax -2.06821 2.12925 6.63065
lowerneck -17.2209 -5.64686 -1.66301
upperneck 15.8954 -6.44199 -3.95373
head 7.6525 -3.52171 -1.76743
rclavicle -2.8625e-014 -4.83047e-014
rhumerus 39.8264 5.33366 -57.2936
rradius 33.8282
rwrist -11.6765
rhand -32.7221 19.4332
rfingers 7.12502
rthumb -5.94591 -10.4633
lclavicle -2.8625e-014 -4.83047e-014
lhumerus -13.2587 -74.6825 104.29
lradius 72.9268
lwrist -9.56111
lhand -49.8655 27.5955
lfingers 7.12502
lthumb -22.46 56.3095
rfemur -71.583 -2.79629 18.6372
rtibia 32.8874
rfoot 0.0528069 -2.06947
rtoes 10.2985
lfemur -41.4554 -2.30231 -11.576
ltibia 26.8487
lfoot -14.1279 -6.81012
ltoes -18.8311
216
root -0.338856 17.6626 -4.97149 44.8088 19.9447 4.29515
lowerback 29.4196 3.37317 0.0189555
upperback 13.1004 4.82505 7.1885
thorax -2.01872 2.18719 6.49687
lowerneck -17.2785 -5.82 -1.72539
upperneck 15.3789 -6.69186 -3.87196
head 7.49271 -3.63656 -1.74696
rclavicle -1.27222e-014 8.34896e-015
rhumerus 41.085 4.26224 -57.0458
rradius 32.7687
rwrist -11.5021
rhand -32.8053 19.505
rfingers 7.12502
rthumb -6.02623 -10.3893
lclavicle -1.27222e-014 8.34896e-015
lhumerus -12.249 -75.0281 103.295
lradius 73.2982
lwrist -9.6451
lhand -49.8799 27.4167
lfingers 7.12502
lthumb -22.4738 56.129
rfemur -72.5111 -3.09581 18.7851
rtibia 33.1862
rfoot -0.151967 -1.73099
rtoes 8.47066
lfemur -42.5392 -2.43388 -11.5298
ltibia 27.5019
lfoot -14.3984 -6.67312
ltoes -19.1186
217
root -0.363836 17.6454 -4.93339 45.372 19.9945 4.38826
lowerback 29.7984 3.61698 0.0202471
upperback 13.2094 5.13072 7.23173
thorax -2.10485 2.33021 6.43892
lowerneck -16.8771 -6.05819 -1.66772
upperneck 14.6595 -7.09475 -3.69217
head 7.18561 -3.80583 -1.70752
rclavicle -2.54444e-014 2.60408e-014
rhumerus 41.9617 3.09632 -56.858
rradius 31.9388
rwrist -11.5159
rhand -32.6626 19.342
rfingers 7.12502
rthumb -5.88844 -10.5562
lclavicle -2.54444e-014 2.60408e-014
lhumerus -12.0678 -75.5762 103.015
lradius 73.6716
lwrist -9.74174
lhand -48.7722 27.6034
lfingers 7.12502
lthumb -21.4103 56.4404
rfemur -73.1793 -3.13589 18.881
rtibia 33.497
rfoot -0.316316 -1.93944
rtoes 11.4961
lfemur -43.0199 -2.37088 -11.4625
ltibia 27.4609
lfoot -14.3081 -6.59478
ltoes -19.0845
218
root -0.377081 17.6216 -4.90944 46.3199 20.3874 4.58681
lowerback 29.697 3.62215 0.442121
upperback 13.2775 5.24084 7.30733
thorax -1.96866 2.39405 6.24977
lowerneck -16.6124 -6.28376 -1.66945
upperneck 13.9932 -7.45816 -3.51137
head 6.92489 -3.96249 -1.65953
rclavicle 6.36111e-015 2.72335e-014
rhumerus 43.0492 2.08055 -56.2421
rradius 31.0381
rwrist -11.8191
rhand -32.5512 19.1158
rfingers 7.12502
rthumb -5.7809 -10.7853
lclavicle 6.36111e-015 2.72335e-014
lhumerus -11.5883 -76.069 102.536
lradius 73.9541
lwrist -9.95808
lhand -49.5237 26.7205
lfingers 7.12502
lthumb -22.1319 55.4737
rfemur -74.2611 -3.47185 19.0835
rtibia 33.8378
rfoot -0.418674 -2.16454
rtoes 14.0685
lfemur -44.0731 -2.54835 -11.236
ltibia 27.5269
lfoot -14.2258 -6.51997
ltoes -19.0612
219
root -0.393884 17.6033 -4.87768 47.138 20.691 4.71894
lowerback 29.6344 3.70039 0.738879
upperback 13.4184 5.40738 7.41448
thorax -1.78401 2.47838 6.15368
lowerneck -16.4742 -6.49169 -1.6603
upperneck 13.4076 -7.77291 -3.45116
head 6.70908 -4.10817 -1.6527
rclavicle -7.31528e-014 -3.15571e-014
rhumerus 44.132 1.06704 -55.6263
rradius 30.0832
rwrist -11.7799
rhand -32.7041 19.2185
rfingers 7.12502
rthumb -5.92852 -10.6786
lclavicle -7.31528e-014 -3.15571e-014
lhumerus -10.743 -76.5614 101.773
lradius 74.1655
lwrist -10.4232
lhand -50.4111 26.5078
lfingers 7.12502
lthumb -22.9836 55.1576
rfemur -75.1948 -3.64936 19.2347
rtibia 34.1831
rfoot -0.587664 -2.02097
rtoes 11.7767
lfemur -44.8899 -2.56706 -11.0347
ltibia 27.496
lfoot -14.2192 -6.60598
ltoes -19.0889
220
root -0.414828 17.5859 -4.83984 47.8398 20.9489 4.79493
lowerback 29.702 3.81065 0.960088
upperback 13.5727 5.59655 7.513
thorax -1.64887 2.57084 6.08117
lowerneck -16.3231 -6.69595 -1.71047
upperneck 12.7915 -8.08458 -3.29602
head 6.48917 -4.24808 -1.60415
rclavicle 7.31528e-014 -7.32514e-015
rhumerus 45.1262 0.0393306 -55.229
rradius 29.2705
rwrist -11.7098
rhand -32.7159 19.3126
rfingers 7.12502
rthumb -5.93994 -10.5841
lclavicle 7.31528e-014 -7.32514e-015
lhumerus -9.93288 -77.216 100.983
lradius 74.408
lwrist -10.968
lhand -49.5017 28.6636
lfingers 7.12502
lthumb -22.1108 57.4193
rfemur -76.0274 -3.74232 19.4312
rtibia 34.5706
rfoot -0.824939 -1.89553
rtoes 9.69614
lfemur -45.6196 -2.48497 -10.8263
ltibia 27.5724
lfoot -14.2364 -6.73685
ltoes -19.6623
221
root -0.43982 17.5746 -4.79445 48.3214 21.2017 4.88339
lowerback 30.1063 3.9164 1.14747
upperback 13.7051 5.78545 7.59195
thorax -1.68847 2.66259 5.99221
lowerneck -16.0621 -6.87593 -1.75541
upperneck 12.1133 -8.37166 -3.11509
head 6.23403 -4.37447 -1.53914
rclavicle -6.36111e-015 1.55052e-014
rhumerus 45.9896 -0.897119 -54.9371
rradius 28.6121
rwrist -11.5138
rhand -32.8371 19.0941
rfingers 7.12502
rthumb -6.05696 -10.7993
lclavicle -6.36111e-015 1.55052e-014
lhumerus -9.49632 -77.8849 100.479
lradius 74.6982
lwrist -11.5094
lhand -48.5616 30.8569
lfingers 7.12502
lthumb -21.208 59.7168
rfemur -76.5838 -3.79854 19.6017
rtibia 34.9666
rfoot -1.0673 -2.233
rtoes 12.6349
lfemur -46.0286 -2.42132 -10.634
ltibia 27.5392
lfoot -14.2283 -6.92853
ltoes -19.5883
222
root -0.435383 17.5354 -4.79156 49.6757 21.8557 5.39596
lowerback 29.7353 3.64584 2.03298
upperback 13.6405 5.66309 7.60375
thorax -1.50552 2.63963 5.54773
lowerneck -15.7864 -7.0941 -1.69699
upperneck 11.4777 -8.70356 -3.12288
head 5.97822 -4.53408 -1.55283
rclavicle 7.95139e-014 -1.63997e-014
rhumerus 46.727 -1.94915 -54.4233
rradius 27.9908
rwrist -10.9909
rhand -33.0252 18.8894
rfingers 7.12502
rthumb -6.23855 -10.9987
lclavicle 7.95139e-014 -1.63997e-014
lhumerus -9.21791 -78.6849 100.326
lradius 75.0874
lwrist -12.2235
lhand -47.0583 34.6845
lfingers 7.12502
lthumb -19.7633 63.6998
rfemur -78.0953 -4.64757 19.9536
rtibia 35.3577
rfoot -1.05109 -2.32013
rtoes 15.9354
lfemur -47.5108 -3.01034 -10.3466
ltibia 27.4823
lfoot -14.0643 -6.89535
ltoes -19.5966
223
root -0.458818 17.526 -4.74981 50.2523 22.123 5.57164
lowerback 30.2842 3.60379 2.25031
upperback 13.6113 5.697 7.6188
thorax -1.76775 2.66064 5.40643
lowerneck -15.6066 -7.1883 -1.86503
upperneck 11.063 -8.83158 -2.96989
head 5.83001 -4.59185 -1.47246
rclavicle 0 3.00165e-014
rhumerus 47.521 -2.48631 -53.8276
rradius 27.45
rwrist -10.9472
rhand -32.9432 19.0895
rfingers 7.12502
rthumb -6.1594 -10.801
lclavicle 0 3.00165e-014
lhumerus -2.48549 -60.207 95.8092
lradius 79.7275
lwrist 75.3271
lhand 37.6251 26.3577
lfingers 7.12502
lthumb 60.399 39.7122
rfemur -78.7269 -4.77597 20.0533
rtibia 35.7448
rfoot -1.27755 -2.47851
rtoes 17.0704
lfemur -47.9679 -3.09449 -10.1459
ltibia 27.4029
lfoot -14.1973 -6.89999
ltoes -20.0832
224
root -0.490174 17.5192 -4.69606 50.3699 22.0266 5.44075
lowerback 31.1239 3.87035 2.07422
upperback 13.7416 6.00899 7.6592
thorax -2.03734 2.79446 5.42352
lowerneck -15.485 -7.32082 -2.00726
upperneck 10.6325 -9.02536 -2.7505
head 5.68835 -4.67602 -1.38351
rclavicle -1.90833e-014 -3.08116e-014
rhumerus 48.3156 -3.30589 -53.9063
rradius 26.8514
rwrist -10.3053
rhand -33.0798 19.4664
rfingers 7.12502
rthumb -6.29128 -10.4202
lclavicle -1.90833e-014 -3.08116e-014
lhumerus -0.755409 -47.7405 95.3782
lradius 78.2843
lwrist 101.099
lhand 27.413 73.8117
lfingers 7.12502
lthumb 51.3668 -94.2861
rfemur -78.9661 -4.39691 20.0349
rtibia 36.1123
rfoot -1.56961 -2.65774
rtoes 17.8179
lfemur -47.9313 -2.95882 -9.92363
ltibia 27.3725
lfoot -14.3507 -6.71648
ltoes -20.27
